<?xml version="1.0" encoding="utf-8"?>
<!-- Generator: Adobe Illustrator 15.1.0, SVG Export Plug-In . SVG Version: 6.00 Build 0)  -->
<!DOCTYPE svg PUBLIC "-//W3C//DTD SVG 1.1//EN" "http://www.w3.org/Graphics/SVG/1.1/DTD/svg11.dtd">
<svg version="1.1" id="Capa_1" xmlns="http://www.w3.org/2000/svg" xmlns:xlink="http://www.w3.org/1999/xlink" x="0px" y="0px"
	 width="59.828px" height="59.828px" viewBox="0 0 59.828 59.828" enable-background="new 0 0 59.828 59.828" xml:space="preserve">
<g>
	<radialGradient id="SVGID_1_" cx="12.8389" cy="0.9761" r="71.8327" gradientUnits="userSpaceOnUse">
		<stop  offset="0.1487" style="stop-color:#D68DB8"/>
		<stop  offset="0.2187" style="stop-color:#CF7DAF"/>
		<stop  offset="0.3552" style="stop-color:#BC5499"/>
		<stop  offset="0.5297" style="stop-color:#A11778"/>
		<stop  offset="0.5908" style="stop-color:#9A1474"/>
		<stop  offset="0.6777" style="stop-color:#880C68"/>
		<stop  offset="0.7559" style="stop-color:#71035A"/>
	</radialGradient>
	<path fill="url(#SVGID_1_)" d="M29.517,59.966c-16.521,0-29.914-13.393-29.914-29.913S12.995,0.14,29.517,0.14
		c16.52,0,29.913,13.393,29.913,29.913S46.037,59.966,29.517,59.966"/>
	<g>
		<polygon fill="#FFFFFF" points="38.167,39.828 50.187,39.828 50.187,37.169 41.246,37.169 41.246,22.244 38.167,22.244 		"/>
		<polygon fill="#FFFFFF" points="10.844,39.828 22.864,39.828 22.864,37.169 13.923,37.169 13.923,22.244 10.844,22.244 		"/>
		<path fill="#FFFFFF" d="M29.152,22.341c-2.63,0-3.827,2.219-3.827,4.348c0,2.125,1.197,4.348,3.827,4.348
			c2.63,0,3.829-2.223,3.829-4.348C32.981,24.56,31.783,22.341,29.152,22.341z M29.152,29.837c-1.984,0-2.395-2.047-2.395-3.148
			c0-1.104,0.411-3.154,2.395-3.154c1.989,0,2.396,2.051,2.396,3.154C31.548,27.791,31.141,29.837,29.152,29.837z"/>
		<path fill="#FFFFFF" d="M24.443,23.728v-1.146H23.12v-2.303h-1.386v2.303h-1.118v1.146h1.118v5.438
			c0,0.994,0.299,1.762,1.667,1.762c0.145,0,0.538-0.064,1.042-0.113v-1.08h-0.488c-0.281,0-0.835,0-0.835-0.65v-5.355H24.443z"/>
	</g>
</g>
</svg>
