<?xml version="1.0" encoding="utf-8"?>
<!-- Generator: Adobe Illustrator 15.1.0, SVG Export Plug-In . SVG Version: 6.00 Build 0)  -->
<!DOCTYPE svg PUBLIC "-//W3C//DTD SVG 1.1//EN" "http://www.w3.org/Graphics/SVG/1.1/DTD/svg11.dtd">
<svg version="1.1" id="Capa_1" xmlns="http://www.w3.org/2000/svg" xmlns:xlink="http://www.w3.org/1999/xlink" x="0px" y="0px"
	 width="59.827px" height="59.827px" viewBox="0 0 59.827 59.827" enable-background="new 0 0 59.827 59.827" xml:space="preserve">
<g>
	<radialGradient id="SVGID_1_" cx="13.4863" cy="0.8364" r="71.8327" gradientUnits="userSpaceOnUse">
		<stop  offset="0.1487" style="stop-color:#D68EB8"/>
		<stop  offset="0.2227" style="stop-color:#CE7EAD"/>
		<stop  offset="0.3667" style="stop-color:#B95693"/>
		<stop  offset="0.5297" style="stop-color:#A01778"/>
		<stop  offset="0.5918" style="stop-color:#991873"/>
		<stop  offset="0.6802" style="stop-color:#851968"/>
		<stop  offset="0.7559" style="stop-color:#701A5B"/>
	</radialGradient>
	<path fill="url(#SVGID_1_)" d="M30.165,59.827c-16.521,0-29.914-13.393-29.914-29.913C0.25,13.393,13.643,0,30.165,0
		c16.52,0,29.912,13.393,29.912,29.914C60.077,46.434,46.684,59.827,30.165,59.827"/>
	<g>
		<path fill="none" stroke="#FFFFFF" stroke-width="1.6862" stroke-linecap="round" stroke-linejoin="round" d="M28.286,21.302
			c0,0-1.783,4.626-0.159,8.196c1.623,3.574,1.683,6.621-0.354,9.225"/>
		<g>
			<path fill="#FFFFFF" d="M31.56,15.824c0,2.021-1.637,3.661-3.661,3.661c-0.126,0-0.254-0.006-0.374-0.017
				c-1.844-0.19-3.287-1.75-3.287-3.644c0-2.021,1.641-3.657,3.661-3.657c0.561,0,1.089,0.127,1.563,0.354
				C30.701,13.105,31.56,14.365,31.56,15.824 M34.559,12.739c3.354-4.363,0.549-7.175-3.814-3.818c-0.715-5.461-4.69-5.461-5.398,0
				c-4.365-3.356-7.173-0.548-3.82,3.818c-5.458,0.71-5.458,4.683,0,5.394c-3.354,4.365-0.545,7.175,3.82,3.817
				c0.708,5.458,4.683,5.458,5.398,0c4.363,3.357,7.169,0.547,3.814-3.817C40.017,17.421,40.017,13.449,34.559,12.739"/>
			<path fill="none" stroke="#FFFFFF" stroke-width="0.5849" d="M31.56,15.824c0,2.021-1.637,3.661-3.661,3.661
				c-0.126,0-0.254-0.006-0.374-0.017c-1.844-0.19-3.287-1.75-3.287-3.644c0-2.021,1.641-3.657,3.661-3.657
				c0.561,0,1.089,0.127,1.563,0.354C30.701,13.105,31.56,14.365,31.56,15.824z M34.559,12.739c3.354-4.363,0.549-7.175-3.814-3.818
				c-0.715-5.461-4.69-5.461-5.398,0c-4.365-3.356-7.173-0.548-3.82,3.818c-5.458,0.71-5.458,4.683,0,5.394
				c-3.354,4.365-0.545,7.175,3.82,3.817c0.708,5.458,4.683,5.458,5.398,0c4.363,3.357,7.169,0.547,3.814-3.817
				C40.017,17.421,40.017,13.449,34.559,12.739z"/>
		</g>
		<g>
			<path fill="#FFFFFF" d="M31.56,15.824c0,2.021-1.637,3.661-3.661,3.661c-0.126,0-0.254-0.006-0.374-0.017
				c-1.844-0.19-3.287-1.75-3.287-3.644c0-2.021,1.641-3.657,3.661-3.657c0.561,0,1.089,0.127,1.563,0.354
				C30.701,13.105,31.56,14.365,31.56,15.824 M34.559,12.739c3.354-4.363,0.549-7.175-3.814-3.818c-0.715-5.461-4.69-5.461-5.398,0
				c-4.365-3.356-7.173-0.548-3.82,3.818c-5.458,0.71-5.458,4.683,0,5.394c-3.354,4.365-0.545,7.175,3.82,3.817
				c0.708,5.458,4.683,5.458,5.398,0c4.363,3.357,7.169,0.547,3.814-3.817C40.017,17.421,40.017,13.449,34.559,12.739"/>
			<path fill="none" stroke="#FFFFFF" stroke-width="0.5849" d="M31.56,15.824c0,2.021-1.637,3.661-3.661,3.661
				c-0.126,0-0.254-0.006-0.374-0.017c-1.844-0.19-3.287-1.75-3.287-3.644c0-2.021,1.641-3.657,3.661-3.657
				c0.561,0,1.089,0.127,1.563,0.354C30.701,13.105,31.56,14.365,31.56,15.824z M34.559,12.739c3.354-4.363,0.549-7.175-3.814-3.818
				c-0.715-5.461-4.69-5.461-5.398,0c-4.365-3.356-7.173-0.548-3.82,3.818c-5.458,0.71-5.458,4.683,0,5.394
				c-3.354,4.365-0.545,7.175,3.82,3.817c0.708,5.458,4.683,5.458,5.398,0c4.363,3.357,7.169,0.547,3.814-3.817
				C40.017,17.421,40.017,13.449,34.559,12.739z"/>
		</g>
		<path fill="#FFFFFF" d="M38.401,27.341c0,0,0.647,4.272-9.179,5.224"/>
		<path fill="none" stroke="#FFFFFF" stroke-width="0.5849" d="M38.401,27.341c0,0,0.647,4.272-9.179,5.224"/>
		<path fill="#FFFFFF" d="M29.309,32.631c0,0,1.884-5.2,9.199-5.2"/>
		<path fill="none" stroke="#FFFFFF" stroke-width="0.5849" d="M29.309,32.631c0,0,1.884-5.2,9.199-5.2"/>
		<path fill="#FFFFFF" d="M28.065,30.741c0,0-1.83-6.45-11.429-4.799"/>
		<path fill="none" stroke="#FFFFFF" stroke-width="0.5849" d="M28.065,30.741c0,0-1.83-6.45-11.429-4.799"/>
		<path fill="#FFFFFF" d="M16.723,25.865c0,0,1.37,7.048,11.422,4.813"/>
		<path fill="none" stroke="#FFFFFF" stroke-width="0.5849" d="M16.723,25.865c0,0,1.37,7.048,11.422,4.813"/>
		<g>
			<polygon fill="#FFFFFF" points="16.79,35.38 43.691,35.365 43.571,40.411 35.834,55.002 24.528,55.002 16.79,40.506 			"/>
		</g>
		<polygon fill="#FFFFFF" points="16.79,35.38 43.691,35.365 43.571,40.411 35.834,55.002 24.528,55.002 16.79,40.506 		"/>
	</g>
</g>
</svg>
