<?xml version="1.0" encoding="utf-8"?>
<!-- Generator: Adobe Illustrator 15.1.0, SVG Export Plug-In . SVG Version: 6.00 Build 0)  -->
<!DOCTYPE svg PUBLIC "-//W3C//DTD SVG 1.1//EN" "http://www.w3.org/Graphics/SVG/1.1/DTD/svg11.dtd">
<svg version="1.1" id="Capa_1" xmlns="http://www.w3.org/2000/svg" xmlns:xlink="http://www.w3.org/1999/xlink" x="0px" y="0px"
	 width="59.827px" height="59.827px" viewBox="0 0 59.827 59.827" enable-background="new 0 0 59.827 59.827" xml:space="preserve">
<g>
	<radialGradient id="SVGID_1_" cx="13.4863" cy="0.8359" r="71.8331" gradientUnits="userSpaceOnUse">
		<stop  offset="0.1487" style="stop-color:#D68EB8"/>
		<stop  offset="0.2227" style="stop-color:#CE7EAD"/>
		<stop  offset="0.3667" style="stop-color:#B95693"/>
		<stop  offset="0.5297" style="stop-color:#A01778"/>
		<stop  offset="0.5918" style="stop-color:#991873"/>
		<stop  offset="0.6802" style="stop-color:#851968"/>
		<stop  offset="0.7559" style="stop-color:#701A5B"/>
	</radialGradient>
	<path fill="url(#SVGID_1_)" d="M30.165,59.827c-16.521,0-29.914-13.393-29.914-29.913C0.25,13.393,13.643,0,30.165,0
		c16.52,0,29.912,13.393,29.912,29.914C60.077,46.434,46.684,59.827,30.165,59.827"/>
	<g>
		<g>
			<path fill="#FFFFFF" d="M12.925,22.975c-0.027,0.301-0.048,0.605-0.048,0.886c0,3.529,2.031,5.067,6.511,5.067
				c4.278,0,6.866-2.147,6.866-5.255c0-2.237-1.261-3.663-3.802-4.248c2.26-0.841,3.102-1.764,3.102-3.672
				c0-3.499-2.24-5.482-6.119-5.482c-4.062,0-6.442,2.192-6.49,6.398l4.411,0.373l0.141-3.061l3.32,0.307l-0.376,3.83h-2.824
				l-0.236,3.219l3.696,0.328l0.205,4.183h-3.481l0.185-2.757L12.925,22.975z"/>
		</g>
		<path fill="#FFFFFF" d="M12.925,22.975c-0.027,0.301-0.048,0.605-0.048,0.886c0,3.529,2.031,5.067,6.511,5.067
			c4.278,0,6.866-2.147,6.866-5.255c0-2.237-1.261-3.663-3.802-4.248c2.26-0.841,3.102-1.764,3.102-3.672
			c0-3.499-2.24-5.482-6.119-5.482c-4.062,0-6.442,2.192-6.49,6.398l4.411,0.373l0.141-3.061l3.32,0.307l-0.376,3.83h-2.824
			l-0.236,3.219l3.696,0.328l0.205,4.183h-3.481l0.185-2.757L12.925,22.975z"/>
		<g>
			<polygon fill="#FFFFFF" points="38.75,11.118 38.75,17.106 32.909,17.106 32.909,19.914 38.75,19.914 38.75,25.926 
				41.633,25.926 41.633,19.914 47.45,19.914 47.45,17.106 41.633,17.106 41.633,11.118 			"/>
		</g>
		<polygon fill="#FFFFFF" points="38.75,11.118 38.75,17.106 32.909,17.106 32.909,19.914 38.75,19.914 38.75,25.926 41.633,25.926 
			41.633,19.914 47.45,19.914 47.45,17.106 41.633,17.106 41.633,11.118 		"/>
		<g>
			<polygon fill="#FFFFFF" points="14.285,36.858 18.519,41.092 14.392,45.223 16.378,47.207 20.506,43.08 24.757,47.331 
				26.795,45.292 22.545,41.041 26.654,36.93 24.668,34.944 20.557,39.053 16.323,34.82 			"/>
		</g>
		<polygon fill="#FFFFFF" points="14.285,36.858 18.519,41.092 14.392,45.223 16.378,47.207 20.506,43.08 24.757,47.331 
			26.795,45.292 22.545,41.041 26.654,36.93 24.668,34.944 20.557,39.053 16.323,34.82 		"/>
		<g>
			<path fill="#FFFFFF" d="M40.627,41.196h-3.889c1.07-1.978,2.347-4.111,3.98-6.361L40.627,41.196z M39.15,49.557h5.298
				l-0.049-4.502l2.521,0.027l0.161-3.41h-2.571l-0.042-10.043c-1.456-0.068-2.998-0.206-4.657-0.476
				c-2.906,3.817-5.253,7.315-7.161,10.476c0.027,0.383,0.049,0.813,0.049,1.292c0,0.435-0.021,1.159-0.068,2.205h6.586
				L39.15,49.557z"/>
		</g>
		<path fill="#FFFFFF" d="M40.627,41.196h-3.889c1.07-1.978,2.347-4.111,3.98-6.361L40.627,41.196z M39.15,49.557h5.298
			l-0.049-4.502l2.521,0.027l0.161-3.41h-2.571l-0.042-10.043c-1.456-0.068-2.998-0.206-4.657-0.476
			c-2.906,3.817-5.253,7.315-7.161,10.476c0.027,0.383,0.049,0.813,0.049,1.292c0,0.435-0.021,1.159-0.068,2.205h6.586L39.15,49.557
			z"/>
	</g>
</g>
</svg>
