<?xml version="1.0" encoding="utf-8"?>
<!-- Generator: Adobe Illustrator 18.1.1, SVG Export Plug-In . SVG Version: 6.00 Build 0)  -->
<svg version="1.1" id="Capa_1" xmlns="http://www.w3.org/2000/svg" xmlns:xlink="http://www.w3.org/1999/xlink" x="0px" y="0px"
	 viewBox="0 0 163.7 50.5" enable-background="new 0 0 163.7 50.5" xml:space="preserve">
<g>
	<g>
		<path fill="#1F1F1D" d="M19.7,32.6c-2.7,1.1-4.1,1.6-7.5,1.6C6,34.1,0.3,30.7,0.3,20.9C0.3,14.5,3,9.9,10.7,9.9
			c6.5,0,9.4,3.4,9.4,8.7v0.9H6.2c0,3.9,2.2,11.6,8.9,11.6c1.6,0,3.1-0.5,4.6-1L19.7,32.6L19.7,32.6z M14.3,17.1
			c0-1.7-0.7-4.9-3.9-4.9c-3.4,0-4.1,3.8-4.3,4.9H14.3z"/>
		<path fill="#1F1F1D" d="M37,29.7h-0.1c-0.7,1.4-2.5,4.4-6.3,4.4c-5.8-0.1-7.7-5.5-7.7-12c0-7.8,2.5-12.3,8.5-12.3
			c3.7,0,4.9,2.3,5.6,3.6H37V0h5.9v33.6H37V29.7z M33.2,30.5c3.3,0,3.5-5.2,3.5-8.4c0-3.6-0.2-8.9-3.6-8.9c-3.5,0-3.9,5.3-3.9,8.9
			C29.2,25.3,29.7,30.5,33.2,30.5z"/>
		<path fill="#1F1F1D" d="M60.6,28.4h-0.1c-0.9,1.9-2.7,5.8-7.1,5.8c-4.5,0-6.3-2.8-6.3-7.7v-16h5.9v14.5c0,2.9,0.8,5,3,5
			c3.8,0,4.7-6.7,4.7-10.4v-9.1h5.9v23.2h-5.9L60.6,28.4L60.6,28.4z"/>
		<path fill="#1F1F1D" d="M97.7,22c0-8.8,3.7-12.1,9.6-12.1c5.9,0,9.6,3.3,9.6,12.1s-3.7,12.1-9.6,12.1
			C101.4,34.1,97.7,30.8,97.7,22z M107.3,31.9c3.6,0,3.9-4.7,3.9-9.9s-0.2-9.9-3.9-9.9c-3.6,0-3.9,4.7-3.9,9.9
			C103.4,27.2,103.7,31.9,107.3,31.9z"/>
		<path fill="#1F1F1D" d="M119.4,22c0-8.8,3.7-12.1,9.6-12.1c5.9,0,9.6,3.3,9.6,12.1s-3.7,12.1-9.6,12.1
			C123.2,34.1,119.4,30.8,119.4,22z M129.1,31.9c3.6,0,3.9-4.7,3.9-9.9s-0.2-9.9-3.9-9.9c-3.6,0-3.9,4.7-3.9,9.9
			C125.2,27.2,125.5,31.9,129.1,31.9z"/>
		<path fill="#1F1F1D" d="M142.8,0h5.9v19.4h0.1l7.4-9h6.5l-8.9,9.9l10,13.4h-7.1l-7.7-11.2h-0.1v11.2h-5.9L142.8,0L142.8,0z"/>
		<circle fill="#E30D18" cx="82.8" cy="11.8" r="4.4"/>
		<path fill="#E30D18" d="M94.9,21.2c0-0.1,0-0.1,0-0.2c0-0.2,0-0.3-0.1-0.5c0-0.1,0-0.1,0-0.1c-0.3-2.4-1.2-4.5-2.7-6.2l0,0
			c-0.4-0.5-0.8-0.9-1.3-1.3l-2,2.5c-0.5,0.7-1,1.3-1.6,1.9c0.7,0.6,1.2,1.4,1.6,2.4v0.1c0.1,0.1,0.1,0.3,0.1,0.5
			c0,0.1,0.1,0.1,0.1,0.2c0,0.1,0.1,0.1,0.1,0.2c0,0.1,0.1,0.2,0.1,0.3c0,0.1,0,0.1,0,0.1c0,0.1,0.1,0.2,0.1,0.4c0,0.1,0,0.1,0,0.1
			c0,0.2,0,0.3,0,0.5c0,3.6-2.8,6.5-6.4,6.5c-3.5,0-6.3-2.8-6.3-6.3V0h-5.9v33.6h5.9v-1.2v-0.1c0,0,0.1,0,0.1,0.1
			c0.2,0.1,0.3,0.2,0.6,0.3c0.1,0,0.1,0.1,0.1,0.1c0.2,0.1,0.5,0.2,0.7,0.3C78,33,78,33,78.1,33c0.2,0.1,0.4,0.2,0.6,0.2
			c0.1,0,0.1,0.1,0.1,0.1c0.2,0.1,0.5,0.2,0.7,0.2c0.1,0,0.1,0,0.1,0c0.2,0.1,0.4,0.1,0.6,0.2c0.1,0,0.1,0,0.2,0.1
			c0.2,0.1,0.5,0.1,0.7,0.1h0.1c0.2,0.1,0.5,0.1,0.7,0.1c0.1,0,0.1,0,0.2,0c0.2,0,0.5,0,0.7,0l0,0c2.1,0,4.1-0.5,5.8-1.4
			c0.2-0.1,0.3-0.2,0.5-0.3c0.3-0.2,0.6-0.4,1-0.6c0.8-0.6,1.5-1.3,2.1-2c0.2-0.3,0.5-0.6,0.7-0.9c1.3-2,2.1-4.3,2.1-6.8
			C94.9,21.7,94.9,21.4,94.9,21.2z"/>
	</g>
	<rect x="127.7" y="45.4" fill="#9C9B9B" width="36" height="0.3"/>
	<rect x="0" y="45.4" fill="#9C9B9B" width="36" height="0.3"/>
	<g>
		<g>
			<path fill="#9C9B9B" d="M43.7,47.7c-0.5,0.2-1.1,0.3-1.7,0.3c-1.8,0-3.2-1-3.2-3.4c0-1.6,0.8-2.9,2.7-2.9c1.8,0,2.3,1.1,2.3,2.2
				h-1.5c0-0.6-0.2-1.2-0.9-1.2c-0.8,0-1.1,0.7-1.1,1.6c0,1.2,0.7,2.7,2.5,2.7c0.4,0,0.7-0.1,1-0.2V47.7z"/>
			<path fill="#9C9B9B" d="M44.3,44.8c0-2,0.9-3.1,2.6-3.1c1.7,0,2.6,1.2,2.6,3.1c0,2-0.9,3.1-2.6,3.1
				C45.2,47.9,44.3,46.8,44.3,44.8z M46.9,47c1,0,1.2-1,1.2-2.1c0-1.1-0.2-2.1-1.2-2.1c-1,0-1.2,1-1.2,2.1
				C45.8,45.9,45.9,47,46.9,47z"/>
			<path fill="#9C9B9B" d="M50.9,41.8h1.4V43h0c0.2-0.5,0.7-1.3,1.8-1.3c0.9,0,1.6,0.6,1.6,2v4.1h-1.4v-3.4c0-1.2-0.1-1.4-0.6-1.4
				c-0.9,0-1.4,1.3-1.4,2.2v2.6h-1.4V41.8z"/>
			<path fill="#9C9B9B" d="M61,47.8c-0.4,0.1-0.8,0.1-1.1,0.1c-1.6,0-1.8-0.8-1.8-1.6v-3.5h-1.2v-1H58v-1.4l1.4-0.8v2.3h1.8v1h-1.8
				v2.8c0,0.7,0.1,1.3,0.9,1.3c0.2,0,0.4-0.1,0.6-0.1V47.8z"/>
			<path fill="#9C9B9B" d="M66.4,47.7c-0.5,0.2-1,0.2-1.7,0.2c-1.9,0-3-1.2-3-3.4c0-1.7,0.8-2.8,2.6-2.8c1.5,0,2.3,1,2.3,2.4v0.3H63
				c0,0.8,0.6,2.5,2.2,2.5c0.4,0,0.9-0.1,1.1-0.2V47.7z M65.2,43.6c0-0.4-0.2-1-1.1-1c-0.8,0-1.1,0.7-1.1,1H65.2z"/>
			<path fill="#9C9B9B" d="M67.9,41.8h1.4V43h0c0.2-0.5,0.7-1.3,1.8-1.3c0.9,0,1.6,0.6,1.6,2v4.1h-1.4v-3.4c0-1.2-0.1-1.4-0.6-1.4
				c-0.9,0-1.4,1.3-1.4,2.2v2.6h-1.4V41.8z"/>
			<path fill="#9C9B9B" d="M77.9,47.8c-0.4,0.1-0.8,0.1-1.1,0.1c-1.6,0-1.8-0.8-1.8-1.6v-3.5h-1.2v-1h1.2v-1.4l1.4-0.8v2.3h1.8v1
				h-1.8v2.8c0,0.7,0.1,1.3,0.9,1.3c0.2,0,0.4-0.1,0.6-0.1V47.8z"/>
		</g>
		<g>
			<path fill="#9C9B9B" d="M82.3,41.8h1.4v0.9h0c0.2-0.4,0.6-1,1.5-1c0.7,0,1.3,0.4,1.5,1.2h0c0.2-0.4,0.7-1.2,1.7-1.2
				c0.9,0,1.6,0.6,1.6,1.9v4.1h-1.4v-3.4c0-1.2-0.1-1.4-0.6-1.4c-0.8,0-1.2,1.3-1.2,2.2v2.6h-1.4v-3.4c0-1.2-0.1-1.4-0.6-1.4
				c-0.8,0-1.2,1.3-1.2,2.2v2.6h-1.4V41.8z"/>
			<path fill="#9C9B9B" d="M94.8,47.1L94.8,47.1c-0.2,0.4-0.6,0.8-1.6,0.8c-1,0-1.7-0.6-1.7-1.5c0-2,2.5-2,3.3-2v-0.6
				c0-0.6-0.1-1.1-0.8-1.1c-0.8,0-0.9,0.5-0.9,0.9h-1.3c0-1.1,0.7-1.9,2.2-1.9c1.5,0,2.1,0.6,2.1,1.8v4.2h-1.3V47.1z M93.5,46.9
				c0.9,0,1.2-1,1.2-1.8c-0.9,0-2,0.3-2,1.1C92.8,46.7,93.1,46.9,93.5,46.9z"/>
			<path fill="#9C9B9B" d="M97.7,41.8h1.4v1.1h0c0.2-0.4,0.7-1.2,1.7-1.2c0.9,0,1.6,0.6,1.6,1.9v4.1h-1.4v-3.4
				c0-1.2-0.1-1.4-0.6-1.4c-0.9,0-1.4,1.3-1.4,2.2v2.6h-1.4V41.8z"/>
			<path fill="#9C9B9B" d="M107.1,47.1L107.1,47.1c-0.2,0.4-0.6,0.8-1.6,0.8c-1,0-1.7-0.6-1.7-1.5c0-2,2.5-2,3.3-2v-0.6
				c0-0.6-0.1-1.1-0.8-1.1c-0.8,0-0.9,0.5-0.9,0.9h-1.3c0-1.1,0.7-1.9,2.2-1.9c1.5,0,2.1,0.6,2.1,1.8v4.2h-1.3V47.1z M105.9,46.9
				c0.9,0,1.2-1,1.2-1.8c-0.9,0-2,0.3-2,1.1C105.2,46.7,105.5,46.9,105.9,46.9z"/>
			<path fill="#9C9B9B" d="M114.6,48.1c0,1.7-1,2.4-2.8,2.4c-0.9,0-1.6-0.2-1.8-0.2v-1.4c0.3,0.2,1,0.5,1.8,0.5c1.4,0,1.5-1,1.5-1.7
				v-0.9h0c-0.1,0.2-0.6,0.9-1.5,0.9c-1.6,0-2-1.5-2-3.1c0-1.6,0.6-2.9,2-2.9c1,0,1.3,0.5,1.5,0.8h0v-0.7h1.3V48.1z M112.2,46.7
				c0.8,0,1.1-1.2,1.1-2c0-0.8-0.2-1.9-1.1-1.9c-0.9,0-1,1.1-1,1.9C111.2,45.5,111.3,46.7,112.2,46.7z"/>
			<path fill="#9C9B9B" d="M120.6,47.6c-0.5,0.2-1,0.2-1.6,0.2c-1.9,0-3-1.2-3-3.4c0-1.6,0.7-2.8,2.5-2.8c1.5,0,2.2,1,2.2,2.4v0.3
				h-3.5c0,0.8,0.6,2.5,2.2,2.5c0.4,0,0.9-0.1,1.1-0.2V47.6z M119.4,43.6c0-0.4-0.2-1-1-1c-0.8,0-1.1,0.7-1.1,1H119.4z"/>
			<path fill="#9C9B9B" d="M122,41.8h1.4v1.1h0c0.3-0.6,0.7-1.2,1.9-1.2v1.4c-1.4,0-1.9,0.6-1.9,2v2.6H122V41.8z"/>
		</g>
	</g>
</g>
</svg>
